HIERARCHY
ROOT Spine
{
    OFFSET 0.0 0.0 -0.0
    CHANNELS 6 Xposition Yposition Zposition Zrotation Xrotation Yrotation
    JOINT ShoulderCenter
    {
        OFFSET 0.0 34.95833206176758 0.0
        CHANNELS 3 Zrotation Xrotation Yrotation
        JOINT LeftShoulder
        {
            OFFSET 18.581157684326172 0.0 0.0
            CHANNELS 3 Zrotation Xrotation Yrotation
            JOINT LeftElbow
            {
                OFFSET 29.718015670776367 0.0 0.0
                CHANNELS 3 Zrotation Xrotation Yrotation
                JOINT LeftHand
                {
                    OFFSET 32.975372314453125 0.0 0.0
                    CHANNELS 3 Zrotation Xrotation Yrotation
                    End Site
                    {
                        OFFSET 13.190149307250977 0.0 0.0
                    }
                }
            }
        }
        JOINT RightShoulder
        {
            OFFSET -18.581157684326172 0.0 0.0
            CHANNELS 3 Zrotation Xrotation Yrotation
            JOINT RightElbow
            {
                OFFSET -29.718015670776367 0.0 0.0
                CHANNELS 3 Zrotation Xrotation Yrotation
                JOINT RightHand
                {
                    OFFSET -32.975372314453125 0.0 0.0
                    CHANNELS 3 Zrotation Xrotation Yrotation
                    End Site
                    {
                        OFFSET -13.190149307250977 0.0 0.0
                    }
                }
            }
        }
        End Site
        {
            OFFSET 0.0 13.983333587646484 0.0
        }
    }
    JOINT LeftHip
    {
        OFFSET 17.819648438130578 -17.819648438130578 0.0
        CHANNELS 3 Zrotation Xrotation Yrotation
        JOINT LeftKnee
        {
            OFFSET 0.0 -41.611083984375 0.0
            CHANNELS 3 Zrotation Xrotation Yrotation
            JOINT LeftFoot
            {
                OFFSET 0.0 -43.06352996826172 0.0
                CHANNELS 3 Zrotation Xrotation Yrotation
                End Site
                {
                    OFFSET 0.0 0.0 17.22541046142578
                }
            }
        }
    }
    JOINT RightHip
    {
        OFFSET -17.819648438130578 -17.819648438130578 0.0
        CHANNELS 3 Zrotation Xrotation Yrotation
        JOINT RightKnee
        {
            OFFSET 0.0 -41.611083984375 0.0
            CHANNELS 3 Zrotation Xrotation Yrotation
            JOINT RightFoot
            {
                OFFSET 0.0 -43.06352996826172 0.0
                CHANNELS 3 Zrotation Xrotation Yrotation
                End Site
                {
                    OFFSET 0.0 0.0 17.22541046142578
                }
            }
        }
    }
}
MOTION
Frames: 12
Frame Time: 0.03333333333333333
28.5 11.300000190734863 6.599999904632568 -2.624903211116635 -8.082654993798423e-08 91.0037334731352 4.1777114106628757e-08 -1.1803018998415092e-07 1.4476300058565899 114.45931657083182 -25.909868016859143 153.5928739142234 4.895972779084396e-06 -4.222758316582312e-06 83.47525039489447 6.3611093629270335e-15 -8.827812596100317e-32 -1.5902773407317584e-15 -126.02585355790924 -37.68248850236648 -153.95442965453543 2.8422931756806784e-07 8.36347312905358e-07 -83.88571163986543 -8.827812596100317e-32 -6.3611093629270335e-15 -1.5902773407317584e-15 -4.159353828639032 -13.110298219462226 5.9793276306974 10.890102394745853 13.912989219553817 -39.72740387709754 -1.987846675914698e-16 7.392430958160178e-33 -4.261446311492134e-15 2.9028243659856563 -1.2805361409998839 14.927543452398563 -10.53529361396945 6.617858557340283 16.768075575865815 7.951386703658792e-16 -1.2591917747245144e-32 -1.8146865943799413e-15
28.799999237060547 11.300000190734863 6.400000095367432 -2.7887086986586422 0.16397627659288005 90.73371516396674 2.4389945573198913e-08 -3.159244606159137e-08 1.0864538710343317 111.43983061171815 -24.803203977391746 152.02907447531348 -1.4804050013630253e-06 -4.530424237575115e-06 72.46035381207382 -1.5902773407317584e-15 -6.3611093629270335e-15 -3.1805546814635168e-15 -124.87881664596154 -36.08056228856319 -153.87486944322487 -2.95647719658164e-06 -2.930156127697111e-06 -74.51873362976777 0.0 -6.361109362927033e-15 0.0 -4.263080245341405 -13.15688675466445 6.544002005678419 10.824934603656002 13.880755201950373 -39.87653572243649 3.975693351829396e-16 -6.293264839016827e-33 -1.8139100917721617e-15 2.603899462578262 -1.426726971715671 14.319777385750712 -10.499630501857691 6.420466132130316 16.309246840436973 0.0 0.0 1.829440143927745e-15
29.100000381469727 11.300000190734863 6.300000190734863 -2.9524625610111395 -0.16395342325506557 90.4636077165714 -8.123898508692295e-08 1.0281045569713813e-07 0.8793358618296212 110.43123905107501 -19.549317329356747 151.10618015961208 3.259511925095309e-06 -3.7836875698810773e-06 62.538403319735934 5.29668755766019e-31 -6.3611093629270335e-15 9.54166404439055e-15 -124.88402055761465 -32.146121304141374 -154.32522770950774 -2.714346635832275e-08 7.682140292336145e-07 -65.83402685051256 0.0 -3.1805546814635168e-15 0.0 -4.00266940268873 -13.047053388148864 6.107220931563387 10.634228749545155 13.867874771596234 -38.961203561931804 1.987846675914698e-16 -3.879409832270647e-33 -2.236327510404035e-15 2.7990905134978146 -1.4405344002084541 14.568837418983534 -10.442969049883796 6.5246972124377285 16.794563363271557 4.633739521878829e-34 1.5902773407317588e-15 -3.33896121345047e-17
29.399999618530273 11.300000190734863 6.099999904632568 -2.952468763925747 -0.16395272573249695 90.19750117696734 6.766889208385418e-08 6.72619111172327e-08 0.6711593637539726 111.14725867774551 -10.791457593483086 150.55714982500857 3.929381086166727e-06 -1.5127524670344048e-06 54.0758270529308 0.0 0.0 -6.3611093629270335e-15 -126.22905768679641 -26.255459930652215 -155.3061373064083 2.4940172118654593e-06 -4.143670993939584e-06 -57.78933675763909 -6.3611093629270335e-15 0.0 0.0 -4.217931310272683 -12.791684229140428 5.73418610174837 10.738283245798574 13.813797456438776 -38.61231722037188 0.0 0.0 -1.4908850069360234e-15 2.666794109681565 -1.288039845167925 14.693400799886591 -10.468190646859888 6.347590387394996 16.51095683021396 4.052905660880529e-32 -1.5902773407317582e-15 2.9204263078574915e-15
29.600000381469727 11.300000190734863 5.900000095367432 -3.279841676484536 -0.3278016389533127 89.6577497652464 -2.5167456396367737e-08 -3.630575320289352e-08 1.194547759673161 113.42394397066566 -0.3304050476355315 150.951490715195 -3.90397292000961e-06 -1.4119950610329843e-06 46.35043261730129 -3.1805546814635164e-15 1.7655625192200634e-31 -6.361109362927033e-15 -128.27379828807634 -17.478418543863675 -156.6164153275093 -2.361203537577625e-06 -8.633596877750388e-06 -50.37439553982921 -6.3611093629270335e-15 0.0 0.0 -4.075300169906742 -12.886002020006412 5.250354322573509 10.643743445286756 13.995848698092614 -39.04798933022804 9.914047349136099e-33 1.987846675914698e-16 -5.715059193254757e-15 2.844956722455414 -1.5889489777546948 14.715517592256154 -10.752481690204752 6.4427453244555855 16.866378917875544 0.0 0.0 8.350509044057289e-15
29.899999618530273 11.300000190734863 5.699999809265137 -3.1161775015123823 -0.49177302428247294 89.39548946476636 -1.0886038974600234e-07 8.998333389952792e-08 1.7547059960374973 116.86218857401252 10.363918417641877 150.74418240547146 1.4726395313497118e-06 -9.730058829142173e-07 40.029954625192815 6.3611093629270335e-15 -6.3611093629270335e-15 6.3611093629270335e-15 -130.6823829108576 -6.45326846304248 -157.19628359620225 3.1195678432559535e-06 -4.606468393644606e-06 -44.72601250294193 3.1805546814635164e-15 0.0 0.0 -3.980500436217447 -12.447519998724045 4.917118289280906 10.464088070857818 13.955991644581815 -38.47500708918324 3.9756933518293955e-16 -2.120744041641287e-32 -6.112628528437695e-15 2.8715479430092117 -1.134033405367043 15.051267887504691 -10.76700654748405 6.320459194421905 16.67637889036262 0.0 0.0 5.2825472407217544e-15
30.19999885559082 11.300000190734863 5.5 -2.9524688585830687 -0.8197107662207079 89.13321388703648 -2.4580771537778413e-07 1.223988374773287e-07 2.3245644828646324 121.08646931163355 20.282362436627505 150.08965633656754 1.6380207389345955e-06 -1.5287912119871757e-06 35.76624257715117 -1.7655625192200634e-31 -3.1805546814635164e-15 -6.361109362927033e-15 -133.13277526460715 5.233089307180529 -157.40427907445445 -5.425560286576795e-07 3.7357746929953043e-06 -40.56231409095481 0.0 0.0 -6.3611093629270335e-15 -3.7348587605365657 -12.162814934916465 4.886682480949527 10.401525052390632 14.024589812663462 -38.28233295839496 2.0905708540569598e-32 -9.93923337957349e-16 2.4102640945465713e-15 2.921402180719938 -0.8176494765684721 15.219224653406416 -10.502929877791358 6.234537256621764 16.481957963841236 0.0 0.0 -4.0851802195262604e-15
30.399999618530273 11.300000190734863 5.200000286102295 -2.952468613692891 -0.983624168690155 89.13323761236214 -1.1859622996924542e-07 2.5470393091511225e-07 2.3203300858755833 124.77291069766773 27.58593843429264 149.09064604703215 -5.380861345052451e-07 3.22443945795391e-06 32.93829777185174 0.0 -1.5902773407317584e-15 0.0 -135.5277656389613 14.79559578068284 -157.69565684094223 -1.3391266218731022e-06 -4.616163714552993e-06 -37.77475665398571 -1.5902773407317588e-15 -3.1805546814635176e-15 -4.4139062980501586e-32 -3.5724657999252303 -12.025868187375643 4.2149362199617855 10.107248076838212 14.294671544241126 -39.09398515446881 -3.975693351829396e-16 6.207055731633036e-33 -1.7890620083232284e-15 3.078209682331779 -0.3979700207419372 16.091978978677194 -10.78600157832471 6.081384492426438 15.891309818915971 -3.589531708692646e-32 1.5902773407317584e-15 2.586530186512445e-15
30.599998474121094 11.300000190734863 4.900000095367432 -2.78075978420902 -0.980960940364498 88.85822251862179 2.678736256914468e-07 3.2281760780697584e-07 2.430631536455391 127.33008873822044 31.549625146145065 148.20447940996655 -7.34546668267803e-08 -2.4139018701944484e-06 30.758750419925438 0.0 -1.5902773407317584e-15 0.0 -137.5999495488635 22.673904118102044 -157.5286818207205 5.684277493160235e-07 5.288601119488346e-06 -36.495049313074965 7.951386703658791e-16 -4.4139062980501586e-32 -6.361109362927033e-15 -3.5171816666446767 -11.871767100097346 4.046237593882793 9.745789344252765 14.80238771094841 -39.83939424291692 -3.9756933518293955e-16 -9.914047349136099e-33 2.857529596627378e-15 2.7898355677448308 0.06073752853454976 16.79382975371633 -10.540337383051803 5.825403903093818 14.99121670663827 1.9397049161353236e-32 1.5902773407317584e-15 -1.397704694002522e-15
30.799999237060547 11.399999618530273 4.599999904632568 -2.6249060392496473 -1.311762836431712 89.10431403848756 -1.1031109124363869e-07 7.143102438281736e-08 2.1801935796109944 129.14009244944992 33.49111988003821 147.70925705768948 -2.5860524738120708e-06 -4.8238439963272616e-06 29.485665221501492 0.0 0.0 0.0 -138.58012245202423 28.182588035573783 -157.05558172273754 3.501291860614344e-06 9.255936231470544e-09 -36.4536192873817 1.9878466759146976e-15 -1.1034765745125397e-31 -6.361109362927033e-15 -3.3879269832183394 -11.717397624923494 4.451696789597963 9.790825622052859 14.723751093409016 -39.751390414752656 2.3879922745310428e-32 -3.975693351829396e-16 6.8829191153546415e-15 2.6964079406715586 0.4811615151067295 17.178099340067057 -10.236877009269758 5.560945390925276 14.357136344115883 0.0 0.0 -5.376504056263036e-15
30.89999771118164 11.399999618530273 4.199999809265137 -2.6174170675098467 -1.4714591984044876 88.83864284482924 -7.800340634765777e-08 1.1120314830710756e-07 2.286670772637918 129.95925409015294 34.54178584381325 147.55289890053865 2.275675252886856e-06 -1.5637397359343694e-06 29.468759224124472 0.0 0.0 0.0 -138.70156306506993 31.01391449466638 -157.50319383914996 2.366179332319321e-06 3.4197797227611465e-06 -36.5149775746212 7.95138670365879e-16 0.0 0.0 -3.161827187748659 -11.700744864312123 4.145114626474882 9.230045978274179 15.105370770521237 -39.77577555052183 1.5902773407317584e-15 2.4828222926532145e-32 1.7890620083232284e-15 2.5724951983005484 0.6377167831269921 17.6555837313179 -10.348021783400284 5.31348021038388 13.775475899157264 0.0 0.0 1.2734642767578535e-15
31.0 11.5 3.700000047683716 -2.461054762687777 -1.639751154139287 88.82180860620174 5.728500860549264e-08 3.9620874235407943e-07 2.3040291434593003 129.59557953856964 33.6041822796802 148.0216985332757 4.663518844133724e-06 1.0096551732333766e-06 30.052100483219622 6.3611093629270335e-15 1.5902773407317588e-15 6.3611093629270335e-15 -137.62178537630484 29.385366246262983 -157.92099277943214 3.95043287890301e-06 2.1351495592436304e-06 -37.18782958963378 -2.782985346280577e-15 1.5448672043175555e-31 -6.3611093629270335e-15 -2.8545028793268705 -11.40725393645205 3.5815465192393505 8.365223092220644 15.134340360239266 -39.499775725886934 -7.951386703658791e-16 3.9756933518293955e-16 -1.143011838650951e-15 1.9053817896229055 0.6422442223561798 18.003419034991193 -9.0724556611615 5.368919894906296 13.250475966409281 0.0 0.0 2.177313312212818e-15
